<svg xmlns="http://www.w3.org/2000/svg" version="1.1" xmlns:xlink="http://www.w3.org/1999/xlink" xmlns:svgjs="http://svgjs.dev/svgjs" width="128" height="128" viewBox="0 0 128 128"><g transform="matrix(0.8046875,0,0,0.8046875,12.221578124999994,17.910596842132605)"><svg viewBox="0 0 96 86" data-background-color="#ffffff" preserveAspectRatio="xMidYMid meet" height="114" width="128" xmlns="http://www.w3.org/2000/svg" xmlns:xlink="http://www.w3.org/1999/xlink"><g id="tight-bounds" transform="matrix(1,0,0,1,0.25950000000000273,0.20832481364369926)"><svg viewBox="0 0 95.481 85.58335037271259" height="85.58335037271259" width="95.481"><g><svg viewBox="0 0 95.481 85.58335037271259" height="85.58335037271259" width="95.481"><g><svg viewBox="0 0 95.481 85.58335037271259" height="85.58335037271259" width="95.481"><g id="textblocktransform"><svg viewBox="0 0 95.481 85.58335037271259" height="85.58335037271259" width="95.481" id="textblock"><g><svg viewBox="0 0 95.481 85.58335037271259" height="85.58335037271259" width="95.481"><g><svg viewBox="0 0 95.481 85.58335037271259" height="85.58335037271259" width="95.481"><g><svg xmlns="http://www.w3.org/2000/svg" xmlns:xlink="http://www.w3.org/1999/xlink" version="1.1" x="0" y="0" viewBox="9 39.275 545.2456759612713 488.725" enable-background="new 0 0 566.93 566.93" xml:space="preserve" height="85.58335037271259" width="95.481" class="icon-icon-0" data-fill-palette-color="accent" id="icon-0"><g display="none" fill="#075ce4" data-fill-palette-color="accent"><path display="inline" d="M391.898 436.184C362.576 425.186 337.489 405.78 319.349 380.067 300.819 353.802 291.025 322.861 291.025 290.586 291.025 248.529 307.564 209.131 337.594 179.652A23.73 23.73 0 0 0 321.171 138.99 41 41 0 0 0 320.42 138.982C272.795 138.982 228.02 157.528 194.344 191.205S142.122 269.655 142.122 317.281 160.668 409.681 194.344 443.356 272.795 495.579 320.42 495.579C345.77 495.579 370.279 490.356 393.267 480.055A23.728 23.728 0 0 0 391.898 436.184" fill="#075ce4" data-fill-palette-color="accent"></path></g><g display="none" fill="#075ce4" data-fill-palette-color="accent"><path display="inline" d="M444.708 180.492C391.171 126.955 304.559 127.144 251.022 180.681 207.91 223.793 199.65 288.598 226.036 340.173L133.633 432.576C117.204 449.005 117.204 475.643 133.633 492.072S176.7 508.501 193.129 492.072L285.451 399.75C336.95 426.211 401.693 417.76 444.898 374.555 498.434 321.018 498.245 234.029 444.708 180.492M289.813 335.386C257.804 303.377 257.804 251.48 289.813 219.472S373.719 187.463 405.727 219.472 437.736 303.378 405.727 335.386 321.822 367.395 289.813 335.386" fill="#075ce4" data-fill-palette-color="accent"></path></g><g display="none" fill="#075ce4" data-fill-palette-color="accent"><g display="inline" fill="#075ce4" data-fill-palette-color="accent"><path d="M380.942 138.471C362.857 138.471 346.22 144.645 333.001 154.985A17.5 17.5 0 0 0 328.541 158.748 17.37 17.37 0 0 0 324.424 169.994C324.424 176.843 328.379 182.754 334.121 185.611A17.2 17.2 0 0 0 337.798 186.948C371.421 199.647 400.037 222.53 419.893 251.839A17 17 0 0 0 421.565 254.357C424.738 258.369 429.637 260.949 435.148 260.949 441.107 260.949 446.361 257.94 449.479 253.359A17.3 17.3 0 0 0 451.413 249.543 77.5 77.5 0 0 0 458.839 216.366C458.838 173.346 423.963 138.471 380.942 138.471" fill="#075ce4" data-fill-palette-color="accent"></path><path d="M132.315 253.813A17.5 17.5 0 0 0 134.868 250.04C154.862 221.315 183.347 198.952 216.697 186.585A17.4 17.4 0 0 0 219.911 185.432C225.842 182.616 229.953 176.588 229.953 169.586 229.953 164.905 228.108 160.661 225.119 157.515A17.6 17.6 0 0 0 221.708 154.727C208.541 144.54 192.028 138.471 174.093 138.471 131.073 138.471 96.197 173.346 96.197 216.367A77.5 77.5 0 0 0 102.479 246.994 17.4 17.4 0 0 0 104.941 252.211C108.095 256.736 113.33 259.704 119.264 259.704 124.464 259.704 129.118 257.418 132.315 253.813" fill="#075ce4" data-fill-palette-color="accent"></path><path d="M420.985 429.88L413.83 422.724C425.771 400.685 432.554 375.443 432.554 348.616 432.554 262.574 362.804 192.825 276.763 192.825S120.972 262.574 120.972 348.616C120.972 375.641 127.857 401.057 139.963 423.212L133.295 429.879C116.195 446.978 116.195 474.702 133.295 491.802 150.394 508.901 178.117 508.901 195.217 491.802L201.806 485.213C224.046 497.444 249.59 504.406 276.763 504.406 304.134 504.406 329.851 497.339 352.204 484.943L359.064 491.802C376.163 508.901 403.886 508.901 420.986 491.802S438.085 446.979 420.985 429.88M292 343.061V344.183C292 353.773 284.723 361.546 275.134 361.546 275.068 361.546 275.254 361.764 275.189 361.763 275.124 361.764 275.309 362 275.244 362H208.076C198.273 362 191.001 353.599 191.001 343.795V343.061C191.001 333.257 198.273 325 208.076 325H258V244.533C258 234.943 265.41 227.17 275 227.17S292 234.943 292 244.533z" fill="#075ce4" data-fill-palette-color="accent"></path></g></g><g display="none" fill="#075ce4" data-fill-palette-color="accent"><path display="inline" d="M480.086 310.271C480.158 310.211 479.988 310.149 480.06 310.089L313.237 143.043 309.785 139.643A17.62 17.62 0 0 0 299.104 136.039C294.964 136.039 291.15 137.476 288.142 139.864L285.263 142.742 119.819 308.526C118.128 309.714 116.519 311.189 115.334 312.882 113.325 315.755 112 319.245 112 323.016V485.146C112 495.035 120.201 502.999 130.048 502.999H251V429H250.926C250.921 429 250.9 428.047 250.9 427.877 250.9 417.958 259.748 409.606 269.667 409.606 269.844 409.606 267.999 409.317 270.999 409.323V407.999H325.999V409.329C325.999 409.32 326.552 409.296 326.31 409.296 335.475 409.296 342.999 416.237 344.999 425.149V503H466.933C476.929 503 485.999 495.133 485.999 485.138V323.017C486 318.007 483.429 313.493 480.086 310.271" fill="#075ce4" data-fill-palette-color="accent"></path></g><g display="none" fill="#075ce4" data-fill-palette-color="accent"><g display="inline" fill="#075ce4" data-fill-palette-color="accent"><path d="M330.5 293.095C339.171 293.095 346 286.069 346 277.398V261.192C346 252.521 339.171 245.495 330.5 245.495S315 252.521 315 261.192V277.398C315 286.069 321.829 293.095 330.5 293.095" fill="#075ce4" data-fill-palette-color="accent"></path><path d="M248.5 245.495C239.829 245.495 233 252.521 233 261.192V277.398C233 286.069 239.829 293.095 248.5 293.095S264 286.069 264 277.398V261.192C264 252.521 257.171 245.495 248.5 245.495" fill="#075ce4" data-fill-palette-color="accent"></path><path d="M367.293 381.879C366.413 381.097 365.462 380.326 364.586 379.58 357.204 373.303 348.44 367.01 339.293 361.546A696 696 0 0 0 350.323 353.782C362.7 344.308 370.976 336.476 376.787 329.892 377.977 328.421 379.054 327.09 380.046 325.692 380.759 324.924 381.478 324.127 382.199 323.306 382.508 322.954 382.817 322.604 383.122 322.241 385.127 319.854 386.902 317.24 387.971 314.348 388.582 312.769 389.042 311.175 389.042 309.504 389.042 309.465 389.537 306.361 389.528 302.623 389.515 296.896 390 289.676 390 289.676V271.101C390 270.743 389.601 270.376 389.668 270.007 390.73 264.157 394.786 256.944 396.676 249.206 397.063 247.622 397.233 246.019 397.367 244.399L397.008 244.279C397.829 238.703 397.855 232.999 396.992 227.365 388.342 170.99 345.018 135.56 292.909 135.56 239.761 135.56 195.777 172.704 188.361 230.731 187.78 235.28 187.764 239.86 188.203 244.388L188.176 244.398C188.234 245.104 188.327 245.806 188.441 246.506 189.882 255.296 195.411 263.551 196.309 270.09 196.398 270.74 196.216 271.379 196.204 271.994L195.998 271.984V291.893C195.998 295.447 196.069 299.042 196.042 302.621 196.027 304.633 196.178 306.64 196.314 308.632 196.451 310.655 196.943 312.766 197.667 314.346 198.783 317.246 200.529 319.841 202.495 322.239 202.791 322.599 203.11 322.953 203.417 323.304 203.923 323.885 204.448 324.454 204.975 325.013 207.176 328.319 209.938 331.426 213.607 335.14 220.354 341.874 229.404 349.771 242.264 359.078 242.204 359.113 242.147 359.125 242.087 359.159 243.119 359.9 244.155 360.625 245.189 361.362 236.376 366.59 227.629 372.805 219.423 379.721 206.922 390.256 196.18 401.867 188.686 413.306 179.72 426.997 175 440.203 175 452.566V494.192C175 499.984 180.044 504 185.836 504H398.839C404.631 504 410.001 499.984 410.001 494.192V457.441C410 429.424 388.265 400.515 367.293 381.879M272.942 354.64C263.205 347.363 253.05 340.666 243.466 333.179 238.705 329.458 234.084 325.514 229.784 321.262 227.482 318.989 224.842 316.616 222.626 313.916 221.098 312.053 219.77 310.036 218.902 307.782 218.339 306.555 218.532 304.914 218.425 303.342 218.133 299.041 219 294.649 219 290.334V243.816C219 224.021 234.624 208.756 253.513 208.756 255.959 208.756 258.168 209.014 260.67 209.55 271.781 211.927 282.943 213.635 294.332 213.593 304.683 213.558 314.787 211.753 324.88 209.599 324.957 209.585 324.997 209.564 325.074 209.55A37.4 37.4 0 0 1 332.715 208.756C351.604 208.756 368 224.021 368 243.816V288.607S367.799 303.943 367.799 304.02C367.799 305.318 367.325 306.557 366.85 307.784 366.019 310.031 364.579 312.063 363.021 313.918 361.602 315.608 360.064 317.152 358.768 318.574 354.481 323.272 349.724 327.537 344.747 331.489 334.438 339.686 323.165 346.663 312.494 354.636 307.169 358.616 300.107 360.857 292.719 361.031 285.33 360.856 278.267 358.62 272.942 354.64" fill="#075ce4" data-fill-palette-color="accent"></path></g></g><g display="none" fill="#075ce4" data-fill-palette-color="accent"><g display="inline" fill="#075ce4" data-fill-palette-color="accent"><path d="M325.5 274.898C333.64 274.898 340 268.299 340 260.159V244.945C340 236.805 333.634 230.206 325.5 230.206 317.359 230.206 311 236.805 311 244.945V260.159C311 268.299 317.359 274.898 325.5 274.898" fill="#075ce4" data-fill-palette-color="accent"></path><path d="M407 387.971V251.006C407 187.249 355.024 135.561 291.268 135.561L290.879 135.564C290.749 135.562 290.574 135.561 290.474 135.561 226.716 135.561 175 187.25 175 251.006V387.971C185 384.058 195.218 381.854 206.316 381.854 210.103 381.854 213.808 382.11 217.459 382.6 205.703 392.683 195.612 403.71 188.491 414.579 179.648 428.076 175 441.102 175 453.292V494.337C175 500.048 179.938 503.999 185.65 503.999H395.684C401.395 503.999 407 500.048 407 494.337V458.099C407 430.473 385.413 401.966 364.733 383.589 364.382 383.277 363.886 382.981 363.536 382.674A87 87 0 0 1 375.424 381.853C386.522 381.854 397 384.058 407 387.971M363 228.629V285.166C363 299.201 310.823 332.662 310.823 332.662 305.628 336.541 299 338.716 291 338.723V338.698L290.682 338.713C284.244 338.657 278.034 336.892 273.093 333.687 273.093 333.687 272.256 333.088 270.352 332.037 263.337 327.403 220 298.072 220 285.166V273.404C223 263.965 229 255.048 235 246.814V260.151C235 268.291 241.36 274.89 249.5 274.89S264 268.291 264 260.151V244.937C264 237.25 258.475 231.007 250.962 230.33 262.191 220.74 275.635 212.621 290.431 206.368 290.568 206.424 291 206.476 291 206.532V206.193C302 202.094 311.666 198.8 322.612 196.463 343.134 192.077 363 207.646 363 228.629" fill="#075ce4" data-fill-palette-color="accent"></path></g></g><g display="none" fill="#075ce4" data-fill-palette-color="accent"><path display="inline" d="M490.953 392C490.953 383.81 497.593 377 505.784 377H528.123C525.499 320 503.624 268.716 468.909 228.478L453.71 243.614C450.814 246.509 447.019 247.926 443.223 247.926A14.8 14.8 0 0 1 432.736 243.567C426.944 237.775 426.944 228.377 432.736 222.585L448.659 207.097C409.202 171.147 358 147.886 302 143.816V166.153C302 174.343 295.191 180.984 287 180.984S272 174.344 272 166.153V143.458C216 146.166 163.612 168.117 123.421 202.898L139.4 219.012C145.192 224.804 145.124 234.194 139.333 239.986A14.86 14.86 0 0 1 128.813 244.329 14.83 14.83 0 0 1 118.309 239.986L101.934 223.712C66.049 263.218 42.863 315 38.877 371H60.867C69.058 371 75.698 377.81 75.698 386S69.058 401 60.867 401H38.58C40.153 432 47.817 462.702 60.404 490.189 60.414 490.219 61.492 492.263 61.799 492.909 64.899 498.743 69.634 500.999 75.559 500.999H490.212C496.453 500.999 501.893 497.789 504.852 492.778 505.04 492.382 506.094 490.208 506.219 489.935 506.228 489.91 506.234 490.221 506.243 490.195 518.046 464.421 525.521 436 527.705 407H505.783C497.592 407 490.953 400.19 490.953 392M396.314 295.347L338.294 406.561A57.6 57.6 0 0 1 324.311 429.227C313.363 440.175 298.807 446.204 283.325 446.204S253.287 440.175 242.339 429.227C219.74 406.626 219.74 369.854 242.339 347.254 248.427 341.167 255.633 336.605 263.49 333.751 263.605 333.687 263.71 333.611 263.827 333.55L376.349 275.317A14.84 14.84 0 0 1 393.67 278.018 14.83 14.83 0 0 1 396.314 295.347" fill="#075ce4" data-fill-palette-color="accent"></path></g><g fill="#075ce4" data-fill-palette-color="accent"><g fill="#075ce4" data-fill-palette-color="accent"><path d="M523.656 406.249L460.336 306.965C493.669 266.767 499.248 207.844 469.616 161.381 446.014 124.375 406.084 104.113 365.281 104.113 342.603 104.113 319.66 110.369 299.092 123.486 241.518 160.205 224.403 236.777 261.122 294.351 284.713 331.342 324.526 351.652 365.336 351.652 375.676 351.652 386.078 350.349 396.298 347.682L459.674 447.054C466.91 458.399 479.173 464.599 491.701 464.599A37.76 37.76 0 0 0 512.068 458.641C529.736 447.375 534.925 423.917 523.656 406.249M405.328 290.061C393.012 297.916 379.247 301.668 365.647 301.668 341.237 301.668 317.348 289.591 303.249 267.485 281.295 233.062 291.404 187.36 325.826 165.406 338.142 157.551 351.907 153.801 365.507 153.799 389.917 153.798 413.806 165.876 427.905 187.983 449.859 222.406 439.751 268.108 405.328 290.061" fill="#075ce4" data-fill-palette-color="accent"></path><path d="M386.45 370.854C379.467 371.892 372.146 372.416 365.074 372.416 356.662 372.416 349 371.677 340 370.273V465H447.626C445.651 463 443.812 460.574 442.169 457.997z" fill="#075ce4" data-fill-palette-color="accent"></path><path d="M408.941 197H357.58C348.16 197 340 204.647 340 214.066V274.639C348 278.691 356.434 280.904 365.385 280.904A53.4 53.4 0 0 0 394.033 272.555C406.005 264.92 414.353 253.078 417.42 239.214S418.003 211.114 410.367 199.141C409.901 198.411 409.438 198 408.941 197" fill="#075ce4" data-fill-palette-color="accent"></path><path d="M243.443 305.516C222.704 272.999 215.995 234.541 224.394 196.814 232.71 159.459 255.023 128 287.089 107H204.825C195.406 107 188 114.181 188 123.6V465H312V362.381C284 351.39 260.187 331.77 243.443 305.516" fill="#075ce4" data-fill-palette-color="accent"></path><path d="M142.537 332H53.554C44.134 332 36 339.605 36 349.024V465H159V349.024C159 339.605 151.956 332 142.537 332" fill="#075ce4" data-fill-palette-color="accent"></path></g></g><g display="none" fill="#075ce4" data-fill-palette-color="accent"><path display="inline" d="M461.946 246.649C460.082 238.246 451.807 233.379 443.558 235.836L421.083 242.527A143 143 0 0 0 409.725 215.082L430.282 203.957C437.852 199.86 440.268 190.565 435.651 183.301 435.651 183.301 425.282 166.988 412.422 154.127 399.617 141.322 383.437 131.017 383.437 131.017 376.177 126.393 366.885 128.803 362.788 136.374L351.655 156.945A143.2 143.2 0 0 0 324.209 145.553L330.858 123.219C333.314 114.969 328.45 106.688 320.048 104.816 320.048 104.816 301.181 100.613 282.994 100.613 264.886 100.613 246.157 104.767 246.157 104.767 237.754 106.631 232.888 114.906 235.344 123.155L241.993 145.489A143 143 0 0 0 214.515 156.849L203.466 136.432C199.369 128.862 190.074 126.446 182.809 131.063 182.809 131.063 166.496 141.432 153.636 154.292 140.831 167.097 130.526 183.277 130.526 183.277 125.902 190.537 128.312 199.829 135.882 203.926L156.316 214.985A143 143 0 0 0 144.925 242.464L122.728 235.856C114.478 233.4 106.197 238.264 104.326 246.666 104.326 246.666 100.123 265.534 100.123 283.72 100.123 301.829 104.277 320.557 104.277 320.557 106.141 328.96 114.416 333.827 122.665 331.37L144.928 324.742A143.2 143.2 0 0 0 156.32 352.22L135.941 363.249C128.371 367.346 125.955 376.641 130.572 383.905 130.572 383.905 140.941 400.218 153.801 413.079 166.606 425.884 182.786 436.189 182.786 436.189 190.046 440.813 199.338 438.403 203.435 430.832L214.519 410.35A143.2 143.2 0 0 0 241.996 421.709L235.364 443.986C232.908 452.236 237.773 460.517 246.174 462.389 246.174 462.389 265.041 466.592 283.228 466.592 301.336 466.592 320.065 462.438 320.065 462.438 328.468 460.574 333.334 452.299 330.878 444.05L324.208 421.646A143 143 0 0 0 351.652 410.255L362.756 430.774C366.853 438.344 376.148 440.76 383.413 436.142 383.413 436.142 399.726 425.773 412.586 412.913 425.391 400.108 435.696 383.928 435.696 383.928 440.32 376.668 437.91 367.376 430.34 363.279L409.721 352.121A143 143 0 0 0 421.08 324.677L443.493 331.349C451.743 333.805 460.024 328.94 461.896 320.539 461.896 320.539 466.099 301.672 466.099 283.485 466.1 265.377 461.946 246.649 461.946 246.649M282.994 321.168C262.245 321.168 245.425 304.348 245.425 283.599S262.245 246.03 282.994 246.03 320.563 262.85 320.563 283.599 303.743 321.168 282.994 321.168" fill="#075ce4" data-fill-palette-color="accent"></path></g><g display="none" fill="#075ce4" data-fill-palette-color="accent"><path display="inline" d="M443.962 123.411C417.965 97.414 375.665 97.414 349.669 123.411L345.74 127.34 320.318 152.762 135.891 337.189A9.76 9.76 0 0 0 133.031 343.882L114.834 411.812 104.157 451.67A9.807 9.807 0 0 0 116.165 463.679L156.023 453.001 156.028 452.999 226.019 434.251A9.8 9.8 0 0 0 231.96 429.707L414.611 247.056 440.033 221.634 443.962 217.705C469.959 191.707 469.959 149.408 443.962 123.411M156.416 432.593L135.241 411.418 148.132 363.296 204.539 419.703zM407.678 226.255L341.118 159.695 352.673 148.14 419.233 214.7zM440.78 187.319A5.13 5.13 0 0 1 439.43 189.705 5.165 5.165 0 0 1 431.325 183.436C435.763 170.15 433.781 155.875 423.605 145.167 423.392 144.943 423.195 144.709 422.976 144.489 422.921 144.439 422.864 144.393 422.811 144.34A5.073 5.073 0 0 1 429.985 137.166C430.022 137.203 430.054 137.244 430.09 137.282L430.096 137.276C430.944 138.124 431.752 138.996 432.521 139.891 432.802 140.218 433.052 140.563 433.323 140.896 433.792 141.473 434.272 142.044 434.71 142.637 435.028 143.068 435.31 143.518 435.611 143.957 435.964 144.471 436.333 144.978 436.663 145.503 436.975 145.999 437.248 146.51 437.539 147.015 437.82 147.501 438.119 147.98 438.381 148.474 438.674 149.026 438.927 149.592 439.196 150.152 439.418 150.614 439.658 151.069 439.864 151.536 440.13 152.139 440.356 152.755 440.595 153.367 440.766 153.804 440.955 154.235 441.113 154.676 441.345 155.327 441.537 155.988 441.74 156.647 441.866 157.059 442.012 157.465 442.127 157.88 442.32 158.574 442.472 159.276 442.633 159.977 442.721 160.363 442.828 160.746 442.907 161.134 443.056 161.868 443.164 162.607 443.278 163.346 443.333 163.707 443.407 164.065 443.454 164.426 443.553 165.19 443.613 165.957 443.674 166.723 443.701 167.063 443.746 167.402 443.766 167.743 443.812 168.528 443.819 169.314 443.826 170.1 443.829 170.424 443.849 170.748 443.845 171.072 443.836 171.872 443.788 172.67 443.738 173.468 443.719 173.778 443.716 174.089 443.69 174.399A47 47 0 0 1 443.414 176.798C443.373 177.103 443.348 177.409 443.302 177.713A47 47 0 0 1 442.858 180.084C442.795 180.389 442.748 180.696 442.679 180.999A47 47 0 0 1 442.07 183.327C441.984 183.632 441.914 183.94 441.822 184.243A46 46 0 0 1 441.057 186.498C440.96 186.773 440.882 187.049 440.78 187.319" fill="#075ce4" data-fill-palette-color="accent"></path></g><g display="none" fill="#075ce4" data-fill-palette-color="accent"><g display="inline" fill="#075ce4" data-fill-palette-color="accent"><g fill="#075ce4" data-fill-palette-color="accent"><path d="M118 100.613C108.358 100.613 101 108.457 101 118.1V185.424C101 194.802 97 200.938 90 204.463V118.1C90 108.457 81.142 100.613 71.5 100.613S53 108.457 53 118.1V204.279C47 200.6 43 195.153 43 188.047V118.1C43 108.457 35.642 100.613 26 100.613S9 108.457 9 118.1V188.047C9 213.749 26 234.874 53 241.203V448.6C53 458.243 61.858 466.087 71.5 466.087S90 458.243 90 448.601V241.278C117 235.07 135 213.846 135 185.424V118.1C135 108.457 127.642 100.613 118 100.613" fill="#075ce4" data-fill-palette-color="accent"></path><path d="M550.35 102.125C548.307 100.709 546.3 100.673 544.456 100.673 540.467 100.673 537.574 102.928 534.96 105.364 534.274 106.004 466.367 176.395 466.367 289.932 466.367 298.99 475.345 314 485.531 314H520V448.601C520 458.244 527.358 466.088 537 466.088S554 458.244 554 448.601V118.16C554 116.693 555.66 105.804 550.35 102.125M520 196.876V277H503.661C506.143 238 510 222.458 520 196.876" fill="#075ce4" data-fill-palette-color="accent"></path></g><path d="M305.357 233.091C258.512 233.091 220.402 271.202 220.402 318.045S258.512 403 305.357 403 390.311 364.889 390.311 318.046 352.201 233.091 305.357 233.091" fill="#075ce4" data-fill-palette-color="accent"></path><path d="M305.356 171.872C224.627 171.872 159.183 237.316 159.183 318.046 159.183 398.775 224.627 464.219 305.356 464.219S451.53 398.774 451.53 318.045 386.086 171.872 305.356 171.872M305.357 423.984C246.942 423.984 199.417 376.461 199.417 318.045S246.941 212.106 305.357 212.106 411.296 259.629 411.296 318.045 363.772 423.984 305.357 423.984" fill="#075ce4" data-fill-palette-color="accent"></path></g></g><g display="none" fill="#075ce4" data-fill-palette-color="accent"><g display="inline" fill="#075ce4" data-fill-palette-color="accent"><path d="M186 128.993C186 113.533 173.467 101 158.007 101H118.993C103.533 101 91 113.533 91 128.993V168.007C91 183.467 103.533 196 118.993 196H158.007C173.467 196 186 183.467 186 168.007z" fill="#075ce4" data-fill-palette-color="accent"></path><path d="M186 265.993C186 250.533 173.467 238 158.007 238H118.993C103.533 238 91 250.533 91 265.993V305.007C91 320.467 103.533 333 118.993 333H158.007C173.467 333 186 320.467 186 305.007z" fill="#075ce4" data-fill-palette-color="accent"></path><path d="M186 398.993C186 383.533 173.467 371 158.007 371H118.993C103.533 371 91 383.533 91 398.993V438.007C91 453.467 103.533 466 118.993 466H158.007C173.467 466 186 453.467 186 438.007z" fill="#075ce4" data-fill-palette-color="accent"></path><path d="M473 148.951C473 133.514 460.486 121 445.049 121H257.951C242.514 121 230 133.514 230 148.951V149.049C230 164.486 242.514 177 257.951 177H445.049C460.486 177 473 164.486 473 149.049z" fill="#075ce4" data-fill-palette-color="accent"></path><path d="M473 284.951C473 269.514 460.486 257 445.049 257H257.951C242.514 257 230 269.514 230 284.951V285.049C230 300.486 242.514 313 257.951 313H445.049C460.486 313 473 300.486 473 285.049z" fill="#075ce4" data-fill-palette-color="accent"></path><path d="M473 417.951C473 402.514 460.486 390 445.049 390H257.951C242.514 390 230 402.514 230 417.951V418.049C230 433.486 242.514 446 257.951 446H445.049C460.486 446 473 433.486 473 418.049z" fill="#075ce4" data-fill-palette-color="accent"></path></g></g><g display="none" fill="#075ce4" data-fill-palette-color="accent"><g display="inline" fill="#075ce4" data-fill-palette-color="accent"><path d="M425.235 151H399V174.927C399 199.108 380.181 218.781 356 218.781S313 199.109 313 174.927V151H255V174.927C255 199.108 235.181 218.781 211 218.781S167 199.109 167 174.927V151H142.239C128.89 151 118 160.777 118 174.126V443.721C118 457.071 128.89 468 142.239 468H425.234C438.584 468 449 457.071 449 443.721V174.126C449 160.777 438.584 151 425.235 151M399 419H167V268H399z" fill="#075ce4" data-fill-palette-color="accent"></path><path d="M210.5 199.29C223.955 199.29 235 188.383 235 174.927V126.201C235 112.745 223.955 101.838 210.5 101.838S186 112.745 186 126.201V174.927C186 188.383 197.045 199.29 210.5 199.29" fill="#075ce4" data-fill-palette-color="accent"></path><path d="M356 199.29C369.455 199.29 381 188.383 381 174.927V126.201C381 112.745 369.455 101.838 356 101.838S331 112.745 331 126.201V174.927C331 188.383 342.545 199.29 356 199.29" fill="#075ce4" data-fill-palette-color="accent"></path></g></g><g display="none" fill="#075ce4" data-fill-palette-color="accent"><g display="inline" fill="#075ce4" data-fill-palette-color="accent"><path d="M377.018 123H315.866C315.32 109 304.695 99 291.747 99H271.873C258.925 99 248.3 109 247.754 123H186.602C173.308 123 162 132.814 162 146.109V157H401V146.109C401 132.814 390.312 123 377.018 123" fill="#075ce4" data-fill-palette-color="accent"></path><path d="M162 209.836V443.722C162 457.016 173.308 468 186.602 468H377.018C390.312 468 401 457.016 401 443.721V174H162zM337 226.089C337 218.352 343.263 212.08 351 212.08S365 218.352 365 226.089V418.557C365 426.294 358.737 432.566 351 432.566S337 426.294 337 418.557zM267 226.089C267 218.352 273.263 212.08 281 212.08S295 218.352 295 226.089V418.557C295 426.294 288.737 432.566 281 432.566S267 426.294 267 418.557zM199 226.089C199 218.352 205.263 212.08 213 212.08S227 218.352 227 226.089V418.557C227 426.294 220.737 432.566 213 432.566S199 426.294 199 418.557z" fill="#075ce4" data-fill-palette-color="accent"></path></g></g><g display="none" fill="#075ce4" data-fill-palette-color="accent"><g display="inline" fill="#075ce4" data-fill-palette-color="accent"><path d="M409.573 180.969L366.332 137.728C375.011 128.277 374.799 113.463 365.643 104.307L351.59 90.255C342.434 81.1 327.621 80.888 318.169 89.566L274.928 46.325C265.528 36.925 250.145 36.925 240.744 46.325L233.718 53.351 402.546 222.178 409.572 215.152C418.973 205.752 418.973 190.37 409.573 180.969" fill="#075ce4" data-fill-palette-color="accent"></path><path d="M151 270.618V504.504C151 517.798 161.745 528 175.039 528H365.455C378.749 528 390 517.798 390 504.503V234H151zM326 286.871C326 279.134 331.763 272.862 339.5 272.862S353 279.134 353 286.871V479.34C353 487.077 347.237 493.349 339.5 493.349S326 487.076 326 479.34zM256 286.871C256 279.134 262.263 272.862 270 272.862S284 279.134 284 286.871V479.34C284 487.077 277.737 493.349 270 493.349S256 487.077 256 479.34zM188 286.871C188 279.134 194.263 272.862 202 272.862S216 279.134 216 286.871V479.34C216 487.077 209.737 493.349 202 493.349S188 487.077 188 479.34z" fill="#075ce4" data-fill-palette-color="accent"></path></g></g><g display="none" fill="#075ce4" data-fill-palette-color="accent"><path display="inline" d="M547.626 112.958A19.3 19.3 0 0 0 527.616 104.876L32.92 210.11A19.294 19.294 0 0 0 28.007 246.087L136.239 302.574 136.834 444.163A19.294 19.294 0 0 0 168.769 458.658L268.774 371.938 341.422 409.658C350.122 414.173 360.826 411.451 366.308 403.324L547.626 134.538A19.29 19.29 0 0 0 547.626 112.958M208.487 340.928L166.604 419.962 166.549 318.842 451.374 170.098z" fill="#075ce4" data-fill-palette-color="accent"></path></g></svg></g></svg></g></svg></g></svg></g></svg></g><g></g></svg></g><defs></defs></svg><rect width="95.481" height="85.58335037271259" fill="none" stroke="none" visibility="hidden"></rect></g></svg></g></svg>